  <svg aria-hidden="true" viewBox="0 0 24 24" {...props}>
    <path d="M23.954 4.569c-0.885 0.392-1.83 0.656-2.825 0.775 1.014-0.609 1.794-1.574 2.163-2.723-0.951 0.555-2.005 0.959-3.127 1.184-0.897-0.959-2.178-1.559-3.594-1.559-2.719 0-4.92 2.201-4.92 4.917 0 0.39 0.045 0.765 0.127 1.124-4.087-0.205-7.719-2.164-10.148-5.144-0.422 0.723-0.664 1.561-0.664 2.457 0 1.696 0.865 3.192 2.178 4.073-0.803-0.026-1.56-0.247-2.22-0.616 0 0.021 0 0.042 0 0.064 0 2.367 1.685 4.342 3.918 4.788-0.41 0.111-0.841 0.171-1.287 0.171-0.314 0-0.615-0.03-0.917-0.086 0.631 1.953 2.445 3.377 4.604 3.417-1.68 1.318-3.8 2.104-6.102 2.104-0.395 0-0.779-0.023-1.162-0.067 2.179 1.397 4.768 2.213 7.557 2.213 9.054 0 14-7.496 14-13.986 0-0.21-0.004-0.42-0.015-0.63 0.961-0.695 1.8-1.562 2.46-2.548l-0.047-0.02z" />
  </svg>
